<?xml version="1.0" encoding="UTF-8"?>
<svg width="152px" height="87px" viewBox="0 0 152 87" version="1.1" xmlns="http://www.w3.org/2000/svg" xmlns:xlink="http://www.w3.org/1999/xlink">
    <!-- Generator: Sketch 47 (45396) - http://www.bohemiancoding.com/sketch -->
    <title>COIN TOWER Copy</title>
    <desc>Created with Sketch.</desc>
    <defs></defs>
    <g id="Page-1" stroke="none" stroke-width="1" fill="none" fill-rule="evenodd">
        <g id="Desktop-Copy-2" transform="translate(-507.000000, -58.000000)" fill="#FFFFFF">
            <path d="M507,78.6853648 C507,90.3031724 516.067557,99.3707296 527.968726,99.3707296 C538.73645,99.3707296 543.836951,93.136784 543.836951,93.136784 L537.036283,82.3690599 C537.036283,82.3690599 533.635949,85.4860327 529.668893,85.4860327 C525.701837,85.4860327 522.868225,82.6524211 522.868225,78.6853648 C522.868225,74.7183085 525.701837,71.8846969 529.668893,71.8846969 C533.635949,71.8846969 537.036283,75.0016697 537.036283,75.0016697 L543.836951,64.2339456 C543.836951,64.2339456 538.73645,58 527.968726,58 C516.067557,58 507,67.0675572 507,78.6853648 Z M574.439956,78.6853648 C574.439956,74.7183085 571.606345,71.8846969 568.206011,71.8846969 C564.805677,71.8846969 561.972065,74.7183085 561.972065,78.6853648 C561.972065,82.6524211 564.805677,85.4860327 568.206011,85.4860327 C571.606345,85.4860327 574.439956,82.6524211 574.439956,78.6853648 Z M590.308181,78.6853648 C590.308181,90.3031724 581.240624,99.3707296 568.206011,99.3707296 C555.171397,99.3707296 546.10384,90.3031724 546.10384,78.6853648 C546.10384,67.0675572 555.171397,58 568.206011,58 C581.240624,58 590.308181,67.0675572 590.308181,78.6853648 Z M610.710185,58.8500835 L595.975405,58.8500835 L595.975405,98.5206461 L610.710185,98.5206461 L610.710185,58.8500835 Z M641.879913,98.5206461 L658.31486,98.5206461 L658.31486,58.8500835 L643.58008,58.8500835 L643.58008,76.4184755 L633.9458,58.8500835 L617.510853,58.8500835 L617.510853,98.5206461 L632.245633,98.5206461 L632.245633,80.9522541 L641.879913,98.5206461 Z M509.361343,117.726236 L509.361343,126.415978 L516.539826,126.415978 L516.539826,144.173278 L526.363013,144.173278 L526.363013,126.415978 L533.541495,126.415978 L533.541495,117.726236 L509.361343,117.726236 Z M553.943499,130.949757 C553.943499,128.305053 552.054425,126.415978 549.787535,126.415978 C547.520646,126.415978 545.631572,128.305053 545.631572,130.949757 C545.631572,133.594461 547.520646,135.483535 549.787535,135.483535 C552.054425,135.483535 553.943499,133.594461 553.943499,130.949757 Z M564.522316,130.949757 C564.522316,138.694962 558.477278,144.74 549.787535,144.74 C541.097793,144.74 535.052755,138.694962 535.052755,130.949757 C535.052755,123.204552 541.097793,117.159514 549.787535,117.159514 C558.477278,117.159514 564.522316,123.204552 564.522316,130.949757 Z M590.213728,117.726236 L581.523985,117.726236 L578.690374,132.272109 L576.612392,117.726236 L566.41139,117.726236 L572.078613,144.173278 L583.035245,144.173278 L585.868857,130.760849 L588.702468,144.173278 L599.6591,144.173278 L605.326323,117.726236 L595.125321,117.726236 L593.047339,132.272109 L590.213728,117.726236 Z M617.794214,134.727906 L627.617401,134.727906 L627.617401,127.171608 L617.794214,127.171608 L617.794214,125.282534 L628.373031,125.282534 L628.373031,117.726236 L607.971027,117.726236 L607.971027,144.173278 L629.128661,144.173278 L629.128661,136.61698 L617.794214,136.61698 L617.794214,134.727906 Z M658.598221,144.173278 L647.263775,144.173278 L642.729996,135.483535 L642.352181,135.483535 L642.352181,144.173278 L632.528995,144.173278 L632.528995,117.726236 C632.528995,117.726236 637.818403,117.348421 643.485626,117.348421 C651.797554,117.348421 655.575702,121.12657 655.575702,126.604886 C655.575702,132.083201 652.175368,133.972276 652.175368,133.972276 L658.598221,144.173278 Z M642.352181,128.682868 L643.485626,128.682868 C644.807978,128.682868 645.752515,127.73833 645.752515,126.604886 C645.752515,125.471441 644.807978,124.526904 643.485626,124.526904 L642.352181,124.526904 L642.352181,128.682868 Z" id="COIN-TOWER-Copy"></path>
        </g>
    </g>
</svg>