<?xml version="1.0" encoding="UTF-8"?>
<svg width="120px" height="128px" viewBox="0 0 120 128" version="1.1" xmlns="http://www.w3.org/2000/svg" xmlns:xlink="http://www.w3.org/1999/xlink">
    <!-- Generator: Sketch 47 (45396) - http://www.bohemiancoding.com/sketch -->
    <title>Page 1</title>
    <desc>Created with Sketch.</desc>
    <defs>
        <path d="M3.245,0.886 C0.773,4.145 -0.159,7.708 1.423,11.647 C1.608,12.108 2.191,12.409 2.59,12.785 C2.701,12.702 2.813,12.62 2.924,12.538 C3.113,11.454 3.318,10.373 3.487,9.285 C3.688,8.001 3.823,6.705 4.05,5.424 C4.29,4.075 4.651,2.745 4.861,1.392 C4.922,1.001 4.648,0.557 4.527,0.138 C4.093,0.382 3.522,0.522 3.245,0.886 Z" id="path-1"></path>
        <path d="M8.086,2.034 C6.989,2.733 5.928,3.488 4.818,4.163 C3.646,4.876 2.41,5.483 1.255,6.219 C0.922,6.434 0.77,6.931 0.535,7.299 C1.004,7.464 1.487,7.801 1.943,7.768 C6.023,7.47 9.312,5.814 11.223,2.023 C11.447,1.579 11.287,0.942 11.305,0.395 C11.17,0.366 11.035,0.336 10.899,0.307 C9.961,0.882 9.014,1.442 8.086,2.034 Z" id="path-3"></path>
    </defs>
    <g id="Page-1" stroke="none" stroke-width="1" fill="none" fill-rule="evenodd">
        <g id="Desktop-Copy-2" transform="translate(-355.000000, -37.000000)">
            <g id="Page-1" transform="translate(355.000000, 37.000000)">
                <g id="Group-43" transform="translate(3.000000, 9.110000)">
                    <path d="M114.1359,56.3415 C114.0519,72.7525 106.5279,88.4115 93.6219,98.5975 C80.6819,108.8085 63.3179,112.4935 47.3319,108.4995 C31.6569,104.5815 18.3619,93.5155 11.5619,78.8735 C4.5489,63.7755 5.0929,45.7065 12.9459,31.0395 C21.6679,14.7495 38.4369,3.9675 56.8529,2.7005 C58.1509,2.6115 58.1609,0.5775 56.8529,0.6675 C39.8399,1.8375 24.1189,10.6835 14.4119,24.7345 C4.5409,39.0225 1.9429,57.6745 7.4949,74.1295 C12.7909,89.8305 25.0819,102.5775 40.5509,108.4945 C56.7259,114.6815 75.4209,112.8155 90.0639,103.5845 C106.2249,93.3965 116.0719,75.4085 116.1699,56.3415 C116.1759,55.0325 114.1429,55.0315 114.1359,56.3415" id="Fill-1" fill="#FEFEFE"></path>
                    <path d="M107.2262,57.7605 C107.1532,69.5975 102.5062,81.0155 94.1202,89.4025 C85.7332,97.7885 74.3152,102.4365 62.4782,102.5085 C61.1702,102.5165 61.1672,104.5505 62.4782,104.5425 C81.8642,104.4235 99.5042,92.2755 106.3282,74.0845 C108.2852,68.8675 109.2252,63.3255 109.2602,57.7605 C109.2682,56.4515 107.2342,56.4505 107.2262,57.7605" id="Fill-3" fill="#FEFEFE"></path>
                    <path d="M27.7404,25.2576 C36.1654,16.9406 47.5184,12.1516 59.3824,12.1516 C71.2464,12.1516 82.5994,16.9406 91.0234,25.2576 C91.9564,26.1776 93.3954,24.7406 92.4614,23.8196 C78.7104,10.2446 57.7474,6.3316 40.0834,14.2766 C34.9444,16.5886 30.3074,19.8656 26.3024,23.8196 C25.3694,24.7406 26.8074,26.1786 27.7404,25.2576" id="Fill-5" fill="#FEFEFE"></path>
                    <path d="M97.1178,43.1623 C97.1188,43.1943 97.1218,43.2213 97.1248,43.2483 C97.1238,43.2283 97.1228,43.1963 97.1178,43.1623" id="Fill-7" fill="#171818"></path>
                    <path d="M63.523,25.9659 C63.549,25.9559 63.574,25.9449 63.601,25.9369 C63.971,25.8059 64.342,25.6799 64.715,25.5629 C65.756,25.2349 66.804,24.9309 67.857,24.6449 C69.32,24.2479 70.792,23.9029 72.248,23.4769 C74.53,22.8089 76.798,22.0859 79.024,21.2569 C81.062,20.4989 82.974,19.5089 84.96,18.6309 C87.219,17.6329 89.571,16.7619 91.995,16.2759 C93.097,16.0569 94.24,15.9259 95.363,16.0189 C95.527,16.0339 95.691,16.0529 95.851,16.0799 L95.854,16.0809 C96.704,16.2189 97.541,16.5109 98.365,16.7419 C100.096,17.2269 101.619,17.8689 102.981,19.0829 C105.117,20.9859 106.808,23.2359 107.6,26.0079 C107.926,27.1539 108.124,28.3249 108.203,29.5099 C108.236,30.0069 108.25,30.5049 108.24,31.0019 C108.237,31.1709 108.232,31.3419 108.223,31.5129 C108.218,31.6009 108.21,31.6919 108.205,31.7799 C108.201,31.8249 108.197,31.8669 108.194,31.9089 C108.193,31.9209 108.192,31.9319 108.19,31.9429 C108.128,32.4159 107.949,32.8399 107.785,33.2869 C107.451,34.1979 107.124,35.1129 106.824,36.0369 C106.531,36.9419 106.24,37.8639 106.083,38.8039 C105.958,39.5309 106.024,40.1439 106.14,40.8589 C106.187,41.1609 106.234,41.4859 106.292,41.8849 C106.358,42.3619 106.424,42.8409 106.489,43.3159 C106.623,44.2999 106.749,45.2799 106.877,46.2629 C106.957,46.8799 107.047,47.4969 107.113,48.1139 C107.12,48.1869 107.125,48.2639 107.136,48.3349 C107.135,48.3379 107.138,48.3419 107.137,48.3449 C107.135,48.3459 107.135,48.3459 107.136,48.3479 C107.143,48.3889 107.145,48.4089 107.143,48.4159 C107.14,48.4069 107.137,48.3709 107.136,48.3479 C107.112,48.4779 107.092,48.6099 107.058,48.7369 C106.84,49.5739 106.251,50.1909 105.496,50.5819 C104.502,51.0999 103.22,51.2219 102.132,50.9369 C101.76,50.8399 101.415,50.6969 101.077,50.5119 C100.939,50.4339 100.804,50.3539 100.674,50.2629 L100.673,50.2609 C100.67,50.2549 100.494,50.1259 100.454,50.0909 C100.383,50.0309 100.315,49.9689 100.25,49.9049 C100.211,49.8639 100.173,49.8269 100.136,49.7849 C100.135,49.7829 100.133,49.7789 100.128,49.7769 C100.104,49.7409 100.023,49.6439 100.005,49.6179 C99.398,48.7019 99.114,47.6479 99.034,46.5589 C98.919,45.0139 98.923,43.4769 98.72,41.9359 C98.706,41.8189 98.69,41.7009 98.673,41.5859 C98.673,41.5859 98.672,41.5839 98.673,41.5809 C98.671,41.5789 98.67,41.5769 98.671,41.5739 C98.669,41.5699 98.669,41.5669 98.669,41.5619 C98.67,41.5499 98.668,41.5379 98.666,41.5259 C98.663,41.5169 98.661,41.5049 98.66,41.4899 C98.658,41.4829 98.658,41.4779 98.658,41.4699 L98.657,41.4679 C98.638,41.2369 98.675,40.7239 99.286,40.4159 L99.294,40.4109 C99.329,40.3949 99.361,40.3809 99.396,40.3649 C99.422,40.3509 99.454,40.3369 99.481,40.3259 C99.481,40.3259 99.483,40.3249 99.487,40.3219 C99.491,40.3199 99.5,40.3169 99.513,40.3119 L99.515,40.3109 C99.515,40.3109 99.517,40.3089 99.519,40.3079 L99.526,40.3029 C99.527,40.3049 99.529,40.3039 99.531,40.3029 C99.531,40.3029 99.533,40.3019 99.535,40.3009 L99.539,40.2979 C99.539,40.2979 99.54,40.2999 99.542,40.2989 L99.546,40.2969 C99.55,40.2939 99.554,40.2919 99.559,40.2919 L99.561,40.2899 L99.569,40.2859 C99.649,40.2519 99.73,40.2189 99.809,40.1859 C99.875,40.1589 99.942,40.1339 100.007,40.1099 C101.054,39.7349 100.579,38.0679 99.528,38.4449 C98.529,38.8009 97.57,39.3109 96.648,39.8289 C94.245,41.1699 92.018,42.8119 89.924,44.5929 C87.693,46.4929 85.633,48.5759 83.518,50.5999 C82.122,51.9369 80.669,53.1709 78.923,54.0279 C77.856,54.5509 76.687,54.9799 75.482,54.9529 C74.732,54.9379 73.924,54.6289 73.458,54.2849 C73.005,53.9519 72.562,53.5199 72.23,53.0649 C71.646,52.2639 72.009,51.5209 72.609,50.8389 C74.592,48.5899 76.604,46.3669 78.602,44.1299 C80.557,41.9399 82.516,39.7479 84.472,37.5609 C85.214,36.7309 83.951,35.5399 83.205,36.3759 C82.689,36.9559 82.172,37.5339 81.653,38.1129 C81.653,38.1129 81.649,38.1159 81.644,38.1209 C81.016,38.8259 80.387,39.5309 79.755,40.2349 C79.754,40.2389 79.752,40.2399 79.75,40.2409 C79.324,40.7199 78.393,41.0879 78.329,41.1139 C78.326,41.1139 78.324,41.1149 78.324,41.1149 C76.293,41.7279 74.262,42.3399 72.232,42.9499 C70.977,43.3299 69.725,43.7079 68.469,44.0859 C68.243,44.1519 68.018,44.2239 67.791,44.2879 C67.735,44.3059 67.678,44.3249 67.62,44.3399 C67.556,44.3569 67.491,44.3679 67.424,44.3849 C67.384,44.3939 67.357,44.4019 67.339,44.4079 C67.342,44.4079 67.344,44.4069 67.345,44.4089 C67.341,44.4119 67.325,44.4159 67.317,44.4159 C67.32,44.4109 67.325,44.4109 67.336,44.4069 C67.324,44.4059 67.301,44.4069 67.26,44.4099 C66.602,44.4569 66.216,44.4539 65.597,44.2309 C65.295,44.1219 64.997,43.9559 64.719,43.7499 C64.335,43.4679 63.988,43.1109 63.717,42.7279 C63.139,41.9119 62.608,40.8969 62.577,39.8759 C62.557,39.2699 62.732,38.8509 63.039,38.5169 C63.044,38.5109 63.05,38.5039 63.061,38.4949 C63.069,38.4869 63.08,38.4779 63.092,38.4679 C63.161,38.4019 63.269,38.3089 63.265,38.3029 C63.318,38.2629 63.37,38.2259 63.426,38.1909 C63.523,38.1269 63.893,37.9749 63.725,38.0269 C63.818,37.9909 63.91,37.9539 63.999,37.9179 C65.245,37.4149 66.474,36.8759 67.692,36.3159 C72.236,34.2269 76.9,31.8309 80.579,28.3879 C81.392,27.6259 80.124,26.4409 79.312,27.2029 C79.078,27.4209 78.839,27.6359 78.597,27.8459 C78.597,27.8459 78.595,27.8469 78.591,27.8489 C77.946,28.4099 77.271,28.9389 76.573,29.4399 C76.573,29.4399 75.89,29.8909 74.936,29.8729 C74.928,29.8729 74.918,29.8739 74.906,29.8729 C74.89,29.8719 74.872,29.8729 74.852,29.8719 C72.518,29.7639 70.185,29.6579 67.851,29.5499 C67.268,29.5239 66.686,29.4969 66.101,29.4689 C65.986,29.4639 65.872,29.4599 65.756,29.4539 C65.746,29.4549 65.734,29.4539 65.723,29.4519 C65.692,29.4529 65.66,29.4489 65.629,29.4459 C65.607,29.4459 65.589,29.4469 65.578,29.4459 C65.578,29.4459 65.575,29.4449 65.571,29.4439 C65.565,29.4429 65.556,29.4399 65.545,29.4389 C64.752,29.3249 63.831,29.0609 63.388,28.3329 L63.359,28.2859 C63.111,27.8469 62.965,27.2039 63.024,26.7009 C63.045,26.5249 63.092,26.4029 63.14,26.3149 C63.149,26.2989 63.156,26.2839 63.16,26.2739 L63.162,26.2729 C63.169,26.2629 63.181,26.2469 63.196,26.2279 C63.204,26.2149 63.272,26.1519 63.31,26.1099 C63.356,26.0809 63.472,25.9999 63.504,25.9779 C63.509,25.9739 63.514,25.9689 63.523,25.9659 L63.523,25.9659 Z M103.3,16.5669 C103.974,16.2359 104.91,16.2889 105.578,16.5439 C107.1,17.1269 108.207,18.6559 109.064,19.9719 C109.658,20.8899 110.197,21.8339 110.645,22.8309 C111.31,24.3069 111.941,25.9589 111.981,27.5949 C112.007,28.6029 111.642,29.5089 110.846,30.1699 C110.728,30.2659 110.606,30.3539 110.479,30.4289 C110.479,30.4289 110.477,30.4299 110.475,30.4309 C110.429,30.4519 109.991,30.6399 109.971,30.1729 C109.97,30.1629 109.969,30.1529 109.968,30.1429 C109.968,30.1429 109.967,30.1409 109.969,30.1389 C109.961,29.8699 109.947,29.6039 109.927,29.3359 C109.712,26.4589 108.909,23.5079 107.199,21.1469 C106.134,19.6749 104.812,18.1909 103.289,17.0799 L103.288,17.0779 C103.255,17.0499 102.956,16.7799 103.298,16.5679 L103.3,16.5669 Z M61.656,25.4199 C61.019,26.4899 61.264,28.0109 61.812,29.0639 C62.584,30.5489 64.33,31.1189 65.897,31.1929 C67.864,31.2849 69.832,31.3749 71.801,31.4639 L71.803,31.4629 C72.642,31.7529 71.902,32.3029 71.822,32.3599 C70.314,33.1689 68.772,33.9109 67.255,34.6189 C66.022,35.1939 64.831,35.7209 63.559,36.2339 C62.955,36.4789 62.401,36.7269 61.917,37.1889 C60.575,38.4619 60.666,40.4109 61.346,41.9949 C62.172,43.9219 63.672,45.7079 65.838,46.0819 C67.659,46.3969 69.454,45.5979 71.162,45.0849 C72.669,44.6299 74.175,44.1769 75.678,43.7249 L75.68,43.7239 C76.407,43.6919 76.09,44.3229 76.072,44.3599 L76.071,44.3609 C74.528,46.0849 72.986,47.8129 71.444,49.5409 C70.759,50.3119 70.15,51.2059 70.176,52.2819 C70.201,53.3069 70.797,54.0979 71.468,54.8139 C72.761,56.1939 74.519,56.8779 76.41,56.6339 C81.28,55.9999 84.693,51.8039 88.032,48.6419 C90.385,46.4109 92.83,44.2889 95.552,42.5169 C95.568,42.5079 95.582,42.4959 95.598,42.4869 C95.621,42.4719 95.646,42.4569 95.668,42.4409 C95.715,42.4089 95.762,42.3809 95.805,42.3549 C96.8,41.7609 97.046,42.5929 97.105,43.0419 C97.107,43.0569 97.11,43.0709 97.11,43.0849 C97.113,43.1119 97.116,43.1369 97.117,43.1599 C97.12,43.1609 97.12,43.1609 97.118,43.1619 C97.123,43.1969 97.123,43.2279 97.125,43.2479 C97.127,43.2639 97.127,43.2739 97.127,43.2819 C97.126,43.2849 97.127,43.2899 97.127,43.2899 L97.126,43.2929 C97.231,44.7609 97.191,46.2489 97.44,47.6979 C97.672,49.0559 98.236,50.5119 99.332,51.4079 C101.106,52.8609 103.641,53.2209 105.769,52.3759 C107.391,51.7309 108.909,50.1399 108.87,48.2799 C108.861,47.8879 108.771,47.4799 108.721,47.0889 C108.596,46.1159 108.47,45.1399 108.34,44.1669 C108.211,43.1859 108.08,42.2019 107.932,41.2219 C107.876,40.8349 107.819,40.4459 107.752,40.0579 C107.741,40.0009 107.731,39.9449 107.72,39.8879 C107.721,39.8849 107.72,39.8829 107.721,39.8799 C107.718,39.8069 107.717,39.7349 107.717,39.6609 C107.717,39.6349 107.727,39.4949 107.727,39.4769 C107.78,38.9719 107.894,38.4709 108.031,37.9729 C108.17,37.4779 108.333,36.9859 108.486,36.5059 C108.798,35.5449 109.138,34.5949 109.488,33.6479 C109.565,33.4379 109.64,33.2349 109.704,33.0309 L109.707,33.0259 C109.731,32.9819 109.99,32.5409 110.566,32.3189 C110.583,32.3109 110.599,32.3039 110.619,32.2969 C110.637,32.2909 110.652,32.2849 110.664,32.2799 C112.136,31.6789 113.333,30.2929 113.623,28.7609 C113.999,26.7689 113.267,24.6219 112.508,22.8059 C111.961,21.4989 111.314,20.2559 110.541,19.0669 C109.41,17.3269 107.94,15.4849 105.889,14.8259 C104.619,14.4179 102.884,14.5959 101.845,15.4799 L101.841,15.4829 C101.835,15.4899 101.814,15.5079 101.787,15.5319 C101.647,15.6439 101.286,15.8819 100.854,15.7329 C100.844,15.7289 100.833,15.7249 100.821,15.7189 C100.786,15.7049 100.749,15.6909 100.714,15.6779 C100.116,15.4499 99.503,15.2629 98.89,15.0899 C97.802,14.7839 96.717,14.4219 95.59,14.3109 C93.054,14.0549 90.434,14.7539 88.054,15.5649 C85.717,16.3569 83.514,17.4189 81.287,18.4689 C79.084,19.5069 76.738,20.2649 74.422,21.0019 C72.621,21.5719 70.806,22.1459 68.967,22.5799 C67.047,23.0309 65.116,23.5509 63.261,24.2209 C62.601,24.4569 62.024,24.7979 61.656,25.4199 L61.656,25.4199 Z" id="Fill-9" fill="#171818"></path>
                    <path d="M103.2978,16.5679 L103.2998,16.5669 C103.9738,16.2359 104.9098,16.2889 105.5778,16.5439 C107.0998,17.1269 108.2068,18.6559 109.0638,19.9719 C109.6588,20.8899 110.1968,21.8339 110.6448,22.8309 C111.3098,24.3069 111.9408,25.9599 111.9808,27.5949 C112.0068,28.6029 111.6418,29.5089 110.8458,30.1699 C110.7288,30.2659 110.6068,30.3539 110.4788,30.4289 C110.4788,30.4289 110.4778,30.4299 110.4758,30.4309 C110.4288,30.4519 109.9908,30.6409 109.9708,30.1729 C109.9698,30.1629 109.9688,30.1529 109.9678,30.1429 C109.9678,30.1429 109.9668,30.1409 109.9688,30.1399 C109.9608,29.8699 109.9468,29.6039 109.9268,29.3359 C109.7128,26.4589 108.9088,23.5079 107.1988,21.1469 C106.1348,19.6749 104.8118,18.1909 103.2888,17.0799 L103.2878,17.0779 C103.2548,17.0499 102.9558,16.7799 103.2978,16.5679" id="Fill-11" fill="#F3F3F3"></path>
                    <path d="M63.5036,25.9778 C63.5096,25.9738 63.5136,25.9688 63.5226,25.9658 C63.5486,25.9558 63.5746,25.9448 63.6006,25.9368 C63.9716,25.8058 64.3416,25.6798 64.7156,25.5628 C65.7556,25.2348 66.8036,24.9308 67.8576,24.6458 C69.3196,24.2478 70.7926,23.9028 72.2476,23.4768 C74.5306,22.8088 76.7976,22.0858 79.0246,21.2568 C81.0626,20.4988 82.9746,19.5088 84.9596,18.6308 C87.2186,17.6328 89.5716,16.7618 91.9946,16.2758 C93.0966,16.0568 94.2406,15.9268 95.3636,16.0188 C95.5266,16.0338 95.6906,16.0528 95.8516,16.0798 L95.8546,16.0808 C98.3466,16.7078 101.6276,19.0488 102.9886,20.3388 C104.3506,21.6318 105.1846,23.2448 106.7756,26.5198 C108.3696,29.7948 106.6366,35.0058 105.7386,36.3318 C104.8416,37.6598 104.9936,39.4318 104.9936,39.4318 C104.9936,39.4318 106.0826,46.5418 106.3616,47.9268 C106.6386,49.3108 105.4956,50.5818 105.4956,50.5818 C104.5026,51.0998 103.2206,51.2218 102.1316,50.9368 C101.7606,50.8398 101.4146,50.6968 101.0776,50.5118 C100.9386,50.4338 100.8046,50.3538 100.6746,50.2628 L100.6736,50.2608 C100.6696,50.2548 100.4936,50.1258 100.4546,50.0908 C100.3826,50.0308 100.3156,49.9688 100.2496,49.9048 C100.2116,49.8648 100.1726,49.8268 100.1366,49.7848 C100.1346,49.7828 100.1326,49.7798 100.1286,49.7768 C100.1036,49.7408 100.0236,49.6438 100.0046,49.6178 C99.3986,48.7028 99.1146,47.6478 99.0336,46.5588 C98.9186,45.0148 98.9226,43.4768 98.7196,41.9358 C98.7066,41.8188 98.6896,41.7008 98.6726,41.5858 C98.6726,41.5858 98.6716,41.5838 98.6726,41.5808 C98.6716,41.5788 98.6706,41.5768 98.6706,41.5738 C98.6686,41.5698 98.6696,41.5668 98.6686,41.5618 C98.6696,41.5508 98.6676,41.5378 98.6656,41.5258 C98.6626,41.5168 98.6606,41.5048 98.6596,41.4898 C98.6576,41.4828 98.6576,41.4778 98.6576,41.4698 L98.6566,41.4678 C98.6376,41.2368 98.6746,40.7238 99.2856,40.4158 L99.2936,40.4108 C99.3296,40.3948 99.3606,40.3808 99.3956,40.3648 C99.4226,40.3508 99.4536,40.3368 99.4816,40.3258 C99.4816,40.3258 99.4836,40.3248 99.4866,40.3218 C99.4906,40.3198 99.4996,40.3168 99.5126,40.3118 L99.5146,40.3108 C99.5146,40.3108 99.5166,40.3098 99.5186,40.3078 L99.5266,40.3038 C99.5276,40.3058 99.5296,40.3038 99.5316,40.3028 C99.5316,40.3028 99.5336,40.3018 99.5356,40.3008 L99.5386,40.2978 C99.5386,40.2978 99.5406,40.2998 99.5426,40.2988 L99.5456,40.2968 C99.5496,40.2938 99.5536,40.2918 99.5586,40.2918 L99.5606,40.2898 L99.5686,40.2858 C99.6496,40.2518 99.7296,40.2188 99.8086,40.1858 C99.8746,40.1588 99.9426,40.1338 100.0076,40.1098 C101.0546,39.7348 100.5786,38.0678 99.5276,38.4448 C98.5286,38.8008 97.5696,39.3118 96.6476,39.8288 C94.2446,41.1698 92.0176,42.8118 89.9246,44.5928 C87.6936,46.4928 85.6326,48.5758 83.5176,50.5998 C82.1226,51.9368 80.6696,53.1708 78.9236,54.0278 C77.8556,54.5518 76.6866,54.9798 75.4816,54.9528 C74.7316,54.9378 73.9236,54.6288 73.4576,54.2848 C73.0056,53.9518 72.5626,53.5198 72.2306,53.0648 C71.6456,52.2638 72.0096,51.5218 72.6096,50.8388 C74.5926,48.5898 76.6036,46.3668 78.6016,44.1298 C80.5566,41.9398 82.5156,39.7478 84.4726,37.5608 C85.2136,36.7308 83.9516,35.5398 83.2056,36.3758 C82.6896,36.9558 82.1716,37.5338 81.6526,38.1128 C81.6526,38.1128 81.6486,38.1158 81.6446,38.1208 C81.5256,38.2368 80.1576,39.5178 77.4936,40.2248 C75.0096,40.8858 66.5296,43.2478 64.7186,43.7498 C64.3356,43.4678 63.9886,43.1108 63.7166,42.7278 C63.1396,41.9118 62.6076,40.8968 62.5766,39.8768 C62.5576,39.2698 62.7326,38.8508 63.0386,38.5168 C63.0436,38.5108 63.0506,38.5048 63.0606,38.4948 C63.0696,38.4878 63.0796,38.4788 63.0916,38.4678 C63.1606,38.4018 63.2686,38.3088 63.2656,38.3028 C63.3176,38.2628 63.3696,38.2258 63.4266,38.1918 C63.5226,38.1268 63.8926,37.9748 63.7246,38.0268 C63.8176,37.9918 63.9096,37.9538 63.9996,37.9178 C65.2456,37.4148 66.4736,36.8758 67.6926,36.3158 C72.2356,34.2278 76.8996,31.8308 80.5786,28.3878 C81.3916,27.6258 80.1246,26.4408 79.3116,27.2028 C79.0776,27.4208 78.8396,27.6358 78.5976,27.8458 C78.5976,27.8458 78.5956,27.8468 78.5916,27.8498 C78.4726,27.9168 76.6186,28.9408 74.9166,28.8108 C73.4676,28.6998 65.9736,28.4248 63.3876,28.3328 L63.3586,28.2868 C63.1106,27.8468 62.9646,27.2038 63.0246,26.7008 C63.0446,26.5258 63.0926,26.4028 63.1396,26.3148 C63.1486,26.2988 63.1556,26.2838 63.1596,26.2738 L63.1616,26.2728 C63.1686,26.2628 63.1806,26.2478 63.1956,26.2278 C63.2036,26.2148 63.2716,26.1518 63.3096,26.1098 C63.3566,26.0808 63.4716,25.9998 63.5036,25.9778" id="Fill-13" fill="#F8F8F9"></path>
                    <path d="M10.059,35.3627 C10.032,35.3917 10.008,35.4247 9.985,35.4567 C9.982,35.4617 9.979,35.4657 9.976,35.4697 C9.981,35.4627 9.989,35.4547 9.996,35.4457 C10.018,35.4177 10.047,35.3797 10.059,35.3627" id="Fill-15" fill="#2993D1"></path>
                    <path d="M19.6319,16.8651 C19.6249,16.8611 19.6069,16.8541 19.5759,16.8431 C19.4889,16.8081 19.5089,16.8191 19.5529,16.8391 C19.5529,16.8391 19.5549,16.8391 19.5559,16.8411 C19.5859,16.8511 19.6179,16.8611 19.6319,16.8651" id="Fill-17" fill="#2993D1"></path>
                    <path d="M8.21,37.6259 C7.088,35.7329 5.987,33.6789 5.354,31.5579 C5.048,30.5379 4.972,29.3779 5.06,28.2139 C5.069,28.1029 5.078,27.9929 5.09,27.8829 C5.187,26.9299 5.39,25.9819 5.665,25.1129 C6.699,21.8239 9.18,18.8759 11.837,16.7399 C13.793,15.1649 16.006,14.2199 18.466,13.7729 C19.905,13.5109 21.396,13.3649 22.888,13.3759 C22.897,13.3759 22.904,13.3749 22.91,13.3749 C22.918,13.3729 22.924,13.3719 22.929,13.3739 C24.864,13.3879 26.795,13.6679 28.596,14.3069 C30.695,15.0559 32.9,16.2289 34.322,17.9869 C35.396,19.3149 35.741,20.8449 35.621,22.4019 C35.621,22.4019 35.619,22.4029 35.62,22.4069 C35.596,22.7459 35.548,23.0859 35.48,23.4249 C35.478,23.4269 35.477,23.4279 35.478,23.4299 C35.174,24.2849 34.34,23.7809 34.34,23.7809 C32.242,22.3909 30.653,20.3579 29.891,17.8369 C29.565,16.7529 27.88,17.2459 28.206,18.3299 C29.413,22.3299 32.375,25.2179 36.237,26.6809 C37.082,27.0009 37.951,27.2519 38.83,27.4569 C38.84,27.4589 38.861,27.4659 38.886,27.4729 C38.843,27.4529 38.824,27.4429 38.91,27.4759 C38.933,27.4839 38.95,27.4929 38.958,27.4969 C38.947,27.4959 38.932,27.4889 38.912,27.4839 C38.947,27.4989 38.987,27.5189 39,27.5249 C39.145,27.6039 39.285,27.6819 39.423,27.7699 C39.458,27.7919 39.598,27.8909 39.608,27.8969 L39.61,27.8979 C39.676,27.9469 39.739,27.9969 39.801,28.0489 C39.976,28.1909 40.144,28.3409 40.303,28.4969 C41.007,29.1829 41.583,29.9899 41.766,30.9959 C41.952,32.0329 41.439,33.1249 40.618,33.9639 C37.46,37.1879 32.383,35.5329 29.206,33.2399 C28.82,32.9609 28.219,33.2129 28.014,33.5899 C27.906,33.7879 27.885,33.9869 27.93,34.1729 C27.986,34.4129 28.146,34.6259 28.364,34.7809 C29.99,35.9569 31.982,36.8269 33.932,37.2609 C34.456,37.3769 34.983,37.4529 35.512,37.4859 C35.513,37.4869 35.516,37.4869 35.516,37.4869 C36.02,37.5339 36.347,37.8709 36.436,37.9729 C36.439,37.9759 36.443,37.9789 36.446,37.9849 C36.45,37.9879 36.452,37.9899 36.454,37.9939 C36.459,37.9989 36.461,38.0029 36.461,38.0029 C36.663,38.2819 36.832,38.5849 36.967,38.9039 L36.965,38.9049 C37.13,39.2929 37.245,39.7059 37.309,40.1279 C37.41,40.7829 37.412,41.2519 37.262,41.7829 C36.975,42.7899 36.476,43.8649 35.604,44.7069 C34.31,45.9539 32.48,46.1469 30.79,45.7789 C30.643,45.7469 30.501,45.7119 30.355,45.6749 C30.349,45.6719 30.34,45.6709 30.334,45.6679 C30.311,45.6629 30.29,45.6559 30.267,45.6509 C28.752,45.2469 27.322,44.5419 25.973,43.7559 C25.426,43.4349 24.888,43.0969 24.363,42.7409 C24.19,42.6219 24.019,42.4989 23.848,42.3809 C23.847,42.3779 23.846,42.3759 23.843,42.3759 C23.832,42.3669 23.819,42.3589 23.807,42.3509 C23.804,42.3479 23.8,42.3449 23.797,42.3449 C23.423,42.0859 22.955,42.0429 22.606,42.4019 C22.304,42.7109 22.25,43.3559 22.627,43.6429 C23.706,44.4599 24.866,45.1819 26.06,45.8129 C26.763,46.1839 27.492,46.5319 28.242,46.8259 C28.245,46.8289 28.25,46.8309 28.255,46.8319 L28.258,46.8349 C28.564,46.9589 28.295,47.2849 28.295,47.2849 C28.15,47.4359 28.002,47.5869 27.845,47.7339 C26.762,48.7539 25.438,49.5829 23.976,49.5069 C20.981,49.3459 18.015,47.5669 15.664,45.8449 C12.618,43.6129 10.134,40.8709 8.21,37.6259 M3.014,25.8599 C2.347,24.7709 2.157,23.3399 2.405,22.0479 C2.782,20.0969 3.852,18.6709 5.22,17.3139 C6.505,16.0379 7.832,14.8089 9.168,13.5879 C9.369,13.4009 9.632,13.2229 9.812,13.0119 C9.807,13.0139 9.804,13.0149 9.801,13.0179 C9.721,13.0909 9.634,13.1109 9.777,13.0309 C9.787,13.0269 9.793,13.0229 9.801,13.0179 C9.807,13.0109 9.813,13.0079 9.819,13.0009 L9.812,13.0119 C9.852,12.9869 9.893,12.9569 9.935,12.9309 C10.005,12.8889 10.08,12.8519 10.153,12.8139 C10.156,12.8129 10.159,12.8099 10.161,12.8079 C10.14,12.8179 10.125,12.8219 10.115,12.8259 C10.112,12.8259 10.109,12.8259 10.106,12.8259 C10.117,12.8209 10.137,12.8119 10.157,12.8019 C10.167,12.7979 10.175,12.7959 10.179,12.7939 C10.187,12.7919 10.193,12.7889 10.197,12.7879 L10.2,12.7879 C10.198,12.7899 10.187,12.7949 10.162,12.8099 C10.224,12.7849 10.283,12.7619 10.343,12.7419 C10.882,12.5599 11.406,12.5389 12.021,12.6869 C12.403,12.7789 12.764,12.9269 13.106,13.1129 L13.107,13.1139 C13.606,13.4109 13.12,13.7639 12.974,13.8569 C12.969,13.8589 12.963,13.8619 12.959,13.8639 L12.96,13.8659 C12.949,13.8709 12.942,13.8769 12.937,13.8779 L12.935,13.8799 C12.385,14.1949 11.854,14.5449 11.34,14.9219 L11.338,14.9229 C10.485,15.5519 9.681,16.2549 8.938,17.0059 C6.509,19.4549 4.467,22.3709 3.674,25.7429 L3.671,25.7459 C3.357,26.3439 3.032,25.8879 3.014,25.8599 M17.576,49.1509 C20.07,50.5309 23.486,52.0159 26.316,50.8139 C27.646,50.2499 28.831,49.3169 29.819,48.2329 C29.819,48.2329 29.817,48.2319 29.822,48.2299 C29.868,48.1919 30.569,47.6189 31.418,47.6589 C31.483,47.6609 31.551,47.6659 31.619,47.6779 C31.622,47.6779 31.624,47.6789 31.627,47.6789 C31.629,47.6809 31.632,47.6799 31.638,47.6799 C31.689,47.6849 31.742,47.6889 31.794,47.6929 C31.873,47.6989 31.951,47.7039 32.031,47.7079 C34.121,47.8079 36.173,46.9249 37.459,45.2629 C38.217,44.2809 38.869,43.0219 39.067,41.7799 C39.277,40.4509 39.011,39.0199 38.383,37.8009 C38.383,37.8009 38.381,37.7999 38.383,37.7979 C38.371,37.7599 38.245,37.2979 38.758,37.1169 C38.76,37.1149 38.761,37.1139 38.763,37.1149 C40.18,36.6679 41.46,35.8269 42.435,34.5409 C43.329,33.3609 43.747,31.9689 43.451,30.5029 C43.216,29.3299 42.529,28.2769 41.715,27.4239 C41.08,26.7619 40.298,26.1129 39.421,25.8089 C38.981,25.6549 38.53,25.5419 38.078,25.4229 C38.076,25.4209 38.073,25.4209 38.071,25.4199 C38.07,25.4179 38.068,25.4199 38.065,25.4169 C37.94,25.3769 36.934,25.0119 37.139,24.1299 C37.143,24.1089 37.148,24.0889 37.153,24.0689 C37.164,24.0299 37.173,23.9919 37.181,23.9549 C37.251,23.6589 37.305,23.3609 37.345,23.0599 C37.715,20.2519 36.716,17.6489 34.612,15.7599 C32.463,13.8329 29.551,12.5289 26.735,11.9959 C23.35,11.3549 19.682,11.5459 16.354,12.4429 C15.614,12.6299 14.862,12.1699 14.761,12.1059 C14.755,12.1029 14.751,12.0999 14.751,12.0999 C13.257,11.0599 11.445,10.4289 9.666,11.1249 C8.84,11.4479 8.274,12.0249 7.632,12.6159 C6.144,13.9819 4.646,15.3459 3.253,16.8079 C1.538,18.6069 0.437,21.0469 0.543,23.5629 C0.606,25.1149 1.235,26.7559 2.365,27.8689 C2.386,27.8939 2.413,27.9209 2.449,27.9489 L2.461,27.9599 C2.507,27.9999 2.553,28.0409 2.596,28.0819 C3.147,28.6249 3.283,29.3159 3.298,29.4059 C3.298,29.4119 3.3,29.4169 3.3,29.4169 C3.334,30.6089 3.543,31.7919 3.977,32.9229 C5.083,35.7919 6.55,38.5689 8.362,41.0569 C10.772,44.3639 13.992,47.1699 17.576,49.1509" id="Fill-19" fill="#171818"></path>
                    <path d="M10.1152,12.8256 C10.0982,12.8316 10.0962,12.8296 10.1052,12.8266 C10.1092,12.8256 10.1122,12.8256 10.1152,12.8256" id="Fill-21" fill="#F3F3F3"></path>
                    <path d="M3.0137,25.8604 C2.3477,24.7704 2.1567,23.3404 2.4047,22.0474 C2.7817,20.0964 3.8527,18.6714 5.2207,17.3144 C6.5047,16.0384 7.8327,14.8094 9.1687,13.5874 C9.3697,13.4014 9.6317,13.2234 9.8117,13.0124 C9.8117,13.0124 11.1457,13.2884 11.7237,13.6434 C12.2747,13.9804 11.4247,14.8394 11.3397,14.9214 L11.3387,14.9234 C10.4847,15.5524 9.6807,16.2554 8.9377,17.0064 C6.5087,19.4544 4.4667,22.3714 3.6747,25.7424 L3.6717,25.7464 C3.3567,26.3444 3.0317,25.8884 3.0137,25.8604" id="Fill-23" fill="#F3F3F3"></path>
                    <path d="M9.9837,35.4574 C10.0027,35.4284 10.0237,35.4014 10.0467,35.3794 C10.0327,35.3974 10.0127,35.4254 9.9957,35.4474 L9.9767,35.4694 C9.9797,35.4654 9.9827,35.4624 9.9837,35.4574 M12.4597,37.0574 C12.4187,37.0594 12.3667,37.0564 12.3027,37.0464 C12.3567,37.0504 12.4087,37.0534 12.4597,37.0574 M19.5767,16.8434 C19.6057,16.8544 19.6247,16.8614 19.6327,16.8654 C19.6177,16.8614 19.5847,16.8514 19.5557,16.8404 L19.5537,16.8384 C19.5337,16.8304 19.5187,16.8234 19.5167,16.8214 C19.5257,16.8224 19.5437,16.8294 19.5767,16.8434 M15.6637,45.8444 C18.0147,47.5664 20.9807,49.3464 23.9757,49.5074 C25.4377,49.5834 26.7617,48.7544 27.8457,47.7334 C27.8457,47.7334 25.8807,47.3174 24.8507,46.4104 C23.8197,45.5024 22.6477,44.8844 22.6267,43.6434 C22.2497,43.3564 22.3037,42.7104 22.6057,42.4014 C22.9547,42.0424 23.4227,42.0854 23.7967,42.3454 C23.8007,42.3454 23.8037,42.3484 23.8067,42.3514 C23.8187,42.3584 23.8327,42.3674 23.8427,42.3764 C23.8457,42.3764 23.8477,42.3774 23.8477,42.3804 C24.0197,42.4984 24.1897,42.6214 24.3627,42.7414 C24.8877,43.0974 25.4267,43.4354 25.9737,43.7564 C27.3227,44.5414 28.7517,45.2464 30.2667,45.6514 C30.2897,45.6564 30.3107,45.6634 30.3337,45.6674 C30.3407,45.6704 30.3487,45.6714 30.3547,45.6744 C30.5007,45.7124 30.6427,45.7464 30.7897,45.7794 C32.4797,46.1464 34.3097,45.9534 35.6037,44.7074 C36.4767,43.8644 36.9747,42.7894 37.2617,41.7834 C37.4117,41.2514 37.4097,40.7834 37.3087,40.1284 C37.2447,39.7054 37.1297,39.2924 36.9657,38.9054 C36.9657,38.9054 31.3857,38.0124 29.6607,36.4924 C27.9347,34.9724 27.9277,34.1734 27.9277,34.1734 L27.9307,34.1724 C27.8847,33.9874 27.9057,33.7884 28.0147,33.5894 C28.2187,33.2124 28.8197,32.9604 29.2057,33.2404 C32.3837,35.5324 37.4607,37.1884 40.6177,33.9644 C41.4387,33.1244 41.9527,32.0324 41.7657,30.9964 C41.5827,29.9904 41.0067,29.1834 40.3027,28.4964 C40.1437,28.3414 39.9757,28.1904 39.8017,28.0484 C39.7387,27.9964 39.6757,27.9474 39.6097,27.8984 L39.6077,27.8964 C39.5977,27.8914 39.4587,27.7924 39.4227,27.7704 C39.2857,27.6824 39.1457,27.6044 38.9997,27.5244 C38.9867,27.5194 38.9467,27.4994 38.9117,27.4834 C38.9317,27.4894 38.9467,27.4964 38.9577,27.4964 C38.9497,27.4924 38.9327,27.4844 38.9097,27.4754 C38.8247,27.4424 38.8427,27.4524 38.8857,27.4724 C38.8607,27.4664 38.8397,27.4594 38.8297,27.4564 C37.9507,27.2514 37.0817,27.0014 36.2367,26.6804 C32.3747,25.2174 29.4127,22.3304 28.2057,18.3294 C27.8797,17.2464 29.5647,16.7524 29.8907,17.8364 C30.5417,19.7724 33.1947,22.4604 34.1237,23.1664 C35.0257,23.8514 35.5867,22.4894 35.6197,22.4064 C35.6197,22.4034 35.6207,22.4014 35.6207,22.4014 C35.7417,20.8454 35.3957,19.3144 34.3217,17.9874 C32.8997,16.2284 30.6957,15.0564 28.5967,14.3074 C26.7947,13.6684 24.8637,13.3874 22.9297,13.3734 C22.9247,13.3724 22.9177,13.3724 22.9097,13.3744 C22.5097,13.4134 16.0257,14.1124 10.9277,19.5254 C5.6647,25.1124 5.3537,31.5584 5.3537,31.5584 C5.9877,33.6784 7.0887,35.7324 8.2097,37.6264 C10.1337,40.8704 12.6177,43.6134 15.6637,45.8444" id="Fill-25" fill="#F8F8F9"></path>
                    <path d="M29.3924,45.9973 C29.3654,46.0263 29.3414,46.0593 29.3184,46.0913 C29.3154,46.0963 29.3124,46.1003 29.3094,46.1043 C29.3144,46.0973 29.3224,46.0893 29.3294,46.0803 C29.3514,46.0523 29.3804,46.0143 29.3924,45.9973" id="Fill-27" fill="#171818"></path>
                    <path d="M12.46,37.0577 C12.408,37.0547 12.356,37.0507 12.304,37.0457 C12.367,37.0567 12.418,37.0607 12.46,37.0577" id="Fill-29" fill="#2993D1"></path>
                    <path d="M17.8472,13.3192 C17.8382,13.3572 17.8302,13.3952 17.8202,13.4342 C17.8332,13.3912 17.8422,13.3532 17.8472,13.3192" id="Fill-31" fill="#2993D1"></path>
                    <path d="M73.5674,96.9082 C73.5604,97.0812 73.5444,97.2512 73.5314,97.4222 C73.5314,97.4442 73.5284,97.4622 73.5284,97.4762 C73.5284,97.4762 73.5264,97.4762 73.5264,97.4782 L73.5264,97.4812 L73.5264,97.4832 C73.5154,97.5532 73.5034,97.6192 73.4904,97.6902 C73.3534,98.3922 73.1944,99.0992 72.9854,99.7832 C72.5854,101.1032 71.8584,102.3552 70.9854,103.5252 C70.4744,104.2122 69.9134,104.8682 69.3364,105.4932 C68.0064,106.9392 66.5974,108.4182 64.9184,109.4612 C63.5254,110.3252 61.9554,110.8992 60.3254,111.1062 C57.5264,111.4612 54.7224,110.8312 52.1044,109.8752 C50.9044,109.4382 49.8204,108.9132 48.8344,108.0822 C47.6864,107.1142 46.6734,105.9752 45.7644,104.7842 C45.7614,104.7822 45.7594,104.7802 45.7594,104.7802 C45.0504,103.8532 44.3864,102.8802 43.8054,101.8662 C43.7304,101.7352 43.6524,101.6012 43.5844,101.4642 C43.5574,101.4102 43.5324,101.3572 43.5054,101.3052 C43.5024,101.2982 43.4984,101.2922 43.4964,101.2872 L43.4964,101.2852 C43.3374,100.8822 43.1874,100.4762 43.0524,100.0672 C42.6124,98.7442 42.2554,97.3722 42.0734,95.9882 C41.8844,94.5582 41.8194,92.9492 42.3914,91.5932 C42.9304,90.3092 43.9684,89.2972 45.1574,88.5042 C45.5294,88.2542 45.9184,88.0272 46.3094,87.8202 C46.3094,87.8202 46.3134,87.8182 46.3234,87.8142 C46.4044,87.7792 46.8594,87.6112 46.8664,88.1022 L46.8664,88.1202 C46.8684,88.3042 46.8664,88.4912 46.8614,88.6772 C46.8344,89.7612 46.6984,90.8362 46.3774,91.8742 C46.3234,92.0492 46.2614,92.2272 46.1954,92.3992 C46.1884,92.4182 46.1614,92.4882 46.1434,92.5342 L46.1434,92.5362 C46.1434,92.5382 46.1434,92.5402 46.1414,92.5452 L46.1384,92.5472 C46.1384,92.5472 46.1384,92.5522 46.1364,92.5542 C46.1324,92.5612 46.1324,92.5652 46.1294,92.5682 C46.1074,92.6132 46.0754,92.6882 46.0664,92.7082 C45.9704,92.9042 45.8684,93.0902 45.7574,93.2742 C45.7364,93.3082 45.7184,93.3382 45.7004,93.3632 C45.7164,93.3452 45.7344,93.3222 45.7544,93.2952 C45.4454,93.6772 45.3914,94.2012 45.7574,94.5762 C46.0754,94.8992 46.7294,94.9542 47.0414,94.5762 C47.7344,93.7312 48.1024,92.6132 48.3364,91.5612 C49.0134,88.5232 48.5254,85.4552 48.0064,82.4302 C47.3724,78.7192 46.6364,75.0242 45.6594,71.3912 C45.2524,69.8792 45.0184,68.2682 45.4794,66.7532 C46.0524,64.8762 48.2134,63.9672 50.1474,64.2232 C50.9884,64.3352 51.5454,64.6822 52.0674,65.2602 C52.2384,65.4482 52.1354,65.3232 52.2514,65.5002 C52.3334,65.6282 52.4134,65.7552 52.4834,65.8872 C52.5314,65.9712 52.5744,66.0592 52.6154,66.1502 C52.6154,66.1572 52.6994,66.3592 52.7174,66.4122 C53.0104,67.2962 53.0314,68.3072 53.1694,69.2232 C53.6634,72.4772 54.2064,75.7262 54.8604,78.9532 C54.9404,79.3462 55.0214,79.7422 55.1064,80.1372 L55.1064,80.1402 C55.1214,80.2172 55.1404,80.2992 55.1564,80.3782 C55.4534,81.7622 55.7814,83.1442 56.1764,84.5032 C56.5394,85.7432 56.9214,87.2612 57.8514,88.2202 C58.6644,89.0612 59.9464,87.7772 59.1354,86.9392 C59.0104,86.8092 59.0144,86.8072 58.8894,86.5912 C58.7674,86.3752 58.6604,86.1482 58.5644,85.9162 C58.5644,85.9162 58.5644,85.9142 58.5624,85.9092 C58.2824,85.2342 58.0714,84.5302 57.8714,83.8282 C57.6444,83.0322 57.4374,82.2282 57.2494,81.4212 C57.2444,81.4082 57.2424,81.3922 57.2394,81.3782 C56.9924,80.2332 57.1834,79.3102 57.2554,79.0242 C57.2554,79.0242 57.2554,79.0192 57.2584,79.0192 C57.2624,79.0032 57.2644,78.9902 57.2694,78.9742 C57.2694,78.9692 57.2714,78.9622 57.2734,78.9582 C57.2764,78.9532 57.2764,78.9472 57.2784,78.9442 C57.2784,78.9442 57.2804,78.9352 57.2804,78.9312 C57.9374,76.6062 58.5944,74.2812 59.2514,71.9562 C59.6164,70.6572 59.9854,69.3592 60.3504,68.0612 C60.4004,67.8892 60.4324,67.7212 60.4734,67.5462 C60.6254,66.8872 60.7874,66.4872 61.0824,65.9682 C61.5394,65.1602 62.1844,64.5892 62.9394,64.2302 C64.0274,63.7142 65.3434,63.6482 66.6314,63.9692 C66.9524,64.0482 67.4114,64.2302 67.5884,64.3642 C67.6614,64.4192 67.8704,64.6532 67.8814,64.6532 C67.9274,64.7162 67.9634,64.7822 68.0024,64.8502 C68.0134,64.8762 68.0224,64.8942 68.0294,64.9052 C68.0314,64.9072 68.0314,64.9072 68.0314,64.9102 C68.0344,64.9142 68.0344,64.9162 68.0364,64.9212 C68.0454,64.9482 68.0524,64.9752 68.0614,65.0032 C68.1774,65.4032 68.1454,65.7802 68.0724,66.1732 C67.4704,69.4482 66.9294,72.7342 66.5134,76.0402 C66.2314,78.2782 65.9974,80.5302 65.9094,82.7852 C65.9074,82.8322 65.9044,82.8782 65.9024,82.9232 C65.8954,83.1552 65.8864,83.3872 65.8824,83.6192 C65.8414,85.5052 65.7934,87.6412 66.5024,89.4252 C66.6814,89.8772 67.1094,90.2022 67.6184,90.0592 C68.0494,89.9362 68.4364,89.4022 68.2524,88.9432 C67.7844,87.7642 67.6884,86.5252 67.6814,85.2462 C67.6844,85.2142 67.7314,84.7122 68.0994,84.7122 C68.2024,84.7122 68.3274,84.7502 68.4814,84.8462 C68.4844,84.8462 68.4844,84.8462 68.4864,84.8482 C68.8244,85.0982 69.1454,85.3712 69.4474,85.6622 C72.0884,88.1952 73.3814,92.1522 73.5584,95.6722 C73.5814,96.0832 73.5854,96.4972 73.5674,96.9082 M56.2874,116.2332 C55.4924,116.1282 54.7744,115.9062 54.0134,115.6152 C53.2104,115.3082 52.4084,114.9972 51.6154,114.6722 C51.1864,114.4972 50.6994,114.3332 50.2584,114.1152 L50.2584,114.1132 C50.0244,113.9992 49.8044,113.8652 49.6134,113.7082 C48.9274,113.1452 48.4594,112.1292 48.4954,111.3522 C48.5044,111.1222 48.5254,110.8842 48.5474,110.6452 C48.5474,110.6452 48.5474,110.6362 48.5504,110.6202 C48.5634,110.5292 48.6344,110.2362 48.9794,110.4382 C48.9844,110.4402 48.9904,110.4452 48.9974,110.4472 C48.9974,110.4472 49.0004,110.4502 49.0024,110.4522 C49.1844,110.5632 49.3684,110.6682 49.5564,110.7682 C49.7834,110.8882 50.0204,111.0042 50.2584,111.1112 C51.2634,111.5632 52.3474,111.9062 53.3854,112.2062 C54.8814,112.6402 56.4264,112.9262 57.9804,112.9992 C58.8854,113.0422 59.7754,112.9992 60.6464,112.8722 L60.6484,112.8722 C61.0734,112.8082 61.4914,112.7272 61.9054,112.6272 C62.3434,112.5202 62.7774,112.3922 63.2024,112.2432 L63.2054,112.2432 C63.2094,112.2402 63.2214,112.2332 63.2414,112.2292 C63.2554,112.2222 63.2754,112.2152 63.2984,112.2082 L63.3004,112.2082 C63.4804,112.1542 63.8254,112.1112 63.5894,112.6882 C63.1024,113.6792 62.3324,114.4722 61.5074,115.1882 C61.3374,115.3382 61.1554,115.4692 60.9664,115.5832 C59.6004,116.4242 57.8174,116.4372 56.2874,116.2332 M69.1294,83.0912 C68.8474,82.9012 68.5584,82.7302 68.2634,82.5762 C68.2614,82.5762 68.2614,82.5732 68.2614,82.5732 C67.7754,82.2922 67.7794,81.6872 67.7844,81.5762 C67.7844,81.5692 67.7864,81.5622 67.7864,81.5602 L67.7864,81.5582 C67.8814,80.0192 68.0364,78.4782 68.2184,76.9472 C68.6244,73.4972 69.1954,70.0702 69.8224,66.6552 C70.1064,65.1052 69.8204,63.5692 68.3564,62.7102 C67.1934,62.0282 65.6704,61.9122 64.3544,62.0052 C63.0554,62.0942 61.8594,62.5392 60.8624,63.3872 C58.9914,64.9732 58.6014,67.5802 57.9694,69.8202 C57.5644,71.2452 57.1534,72.6702 56.7444,74.0922 L56.7444,74.0952 C56.3464,74.9992 55.8124,74.1332 55.7904,74.0972 L55.7874,74.0952 C55.5214,72.5682 55.2714,71.0362 55.0354,69.5022 C54.8624,68.3842 54.8084,67.1842 54.5154,66.0892 C54.1654,64.7712 53.2044,63.5192 51.9764,62.9172 C49.8634,61.8832 46.8684,62.3732 45.1394,63.9512 C43.6344,65.3232 43.2934,67.5072 43.4754,69.4432 C43.5874,70.6382 43.8894,71.7452 44.2274,72.8882 C44.7254,74.5722 45.0074,76.3562 45.3544,78.0762 C45.7094,79.8352 46.0364,81.6012 46.3344,83.3712 C46.4614,84.1212 46.5844,84.8732 46.6794,85.6252 C44.9664,86.3412 43.3074,87.4252 42.0894,88.7912 C39.7424,91.4242 39.9034,94.9452 40.6414,98.1922 C41.1194,100.2802 41.8054,102.1942 42.9824,103.9842 C43.9054,105.3892 44.9614,106.8522 46.1794,108.1272 L46.1824,108.1292 C46.1844,108.1292 46.1864,108.1322 46.1864,108.1322 C46.1934,108.1382 46.2024,108.1482 46.2164,108.1612 C46.2294,108.1752 46.2434,108.1912 46.2614,108.2092 C46.2734,108.2182 46.2824,108.2322 46.2934,108.2452 C46.5004,108.4792 46.9134,109.0452 46.8364,109.7432 C46.8344,109.7502 46.8344,109.7592 46.8344,109.7652 C46.7794,110.1932 46.7344,110.6182 46.7004,111.0472 C46.6184,112.0832 46.9074,113.0562 47.4634,113.9382 C48.5934,115.7312 50.8084,116.3102 52.6814,117.0372 C53.6584,117.4192 54.5604,117.7872 55.5964,117.9512 C57.6694,118.2802 60.0124,118.2992 61.8664,117.1712 C63.0934,116.4262 64.2364,115.2132 64.9594,113.9722 C65.3884,113.2332 65.6324,112.4402 65.8094,111.6202 L65.8094,111.6182 C65.8094,111.6182 65.8114,111.6112 65.8134,111.6042 C65.8474,111.4952 66.0504,110.8952 66.5564,110.5252 C66.5684,110.5182 66.5754,110.5112 66.5814,110.5062 C67.1474,110.1152 67.6904,109.6792 68.2044,109.2002 C71.7224,105.9272 75.1654,101.9512 75.3834,96.9082 C75.6034,91.8222 73.4474,86.0002 69.1294,83.0912" id="Fill-33" fill="#171818"></path>
                    <path d="M63.5891,112.688 C63.1031,113.679 62.3321,114.472 61.5071,115.188 C61.3371,115.338 61.1551,115.469 60.9671,115.583 C59.6011,116.424 57.8171,116.438 56.2881,116.233 C55.4921,116.128 54.7741,115.906 54.0131,115.615 C53.2111,115.308 52.4091,114.997 51.6151,114.672 C51.1861,114.497 50.7001,114.333 50.2591,114.115 L50.2591,114.113 C49.7701,112.877 50.2381,111.184 50.2591,111.111 C51.2631,111.563 52.3471,111.906 53.3861,112.206 C54.8811,112.64 56.4261,112.927 57.9811,112.999 C58.8851,113.043 59.7761,112.999 60.6461,112.872 L60.6481,112.872 C61.0731,112.808 61.4921,112.727 61.9051,112.627 C62.3441,112.52 62.7781,112.393 63.2031,112.243 L63.2051,112.243 C63.2101,112.24 63.2211,112.234 63.2411,112.229 C63.2551,112.222 63.2751,112.215 63.2981,112.208 L63.3001,112.208 C63.4801,112.154 63.8251,112.111 63.5891,112.688" id="Fill-35" fill="#F3F3F3"></path>
                    <path d="M73.5674,96.9082 C73.5604,97.0812 73.5444,97.2512 73.5314,97.4222 C73.5314,97.4442 73.5284,97.4622 73.5284,97.4762 C73.5284,97.4762 73.5264,97.4762 73.5264,97.4782 L73.5264,97.4812 L73.5264,97.4832 C73.5154,97.5532 73.5034,97.6192 73.4904,97.6902 C73.3534,98.3922 73.1944,99.0992 72.9854,99.7832 C72.5854,101.1032 71.8584,102.3552 70.9854,103.5252 C67.7274,106.6682 63.7394,109.4862 57.7584,109.7402 C51.8674,109.9902 45.9434,104.9362 45.7644,104.7842 C45.7614,104.7822 45.7594,104.7802 45.7594,104.7802 C45.0504,103.8532 44.3864,102.8802 43.8054,101.8662 C43.7304,101.7352 43.6524,101.6012 43.5844,101.4642 C43.5574,101.4102 43.5324,101.3572 43.5054,101.3052 C43.5024,101.2982 43.4984,101.2922 43.4964,101.2872 L43.4964,101.2852 C43.3374,100.8822 43.1874,100.4762 43.0524,100.0672 C42.6124,98.7442 42.2554,97.3722 42.0734,95.9882 C41.8844,94.5582 41.8194,92.9492 42.3914,91.5932 C42.9304,90.3092 43.9684,89.2972 45.1574,88.5042 C45.1574,88.5042 46.0344,88.6522 46.0344,89.2002 C46.0344,89.7472 46.1704,89.8072 45.7574,93.2742 C45.7364,93.3082 45.7184,93.3382 45.7004,93.3632 C45.7164,93.3452 45.7344,93.3222 45.7544,93.2952 C45.4454,93.6772 45.3914,94.2012 45.7574,94.5762 C46.0754,94.8992 46.7294,94.9542 47.0414,94.5762 C47.7344,93.7312 48.1024,92.6132 48.3364,91.5612 C49.0134,88.5232 48.5254,85.4552 48.0064,82.4302 C47.3724,78.7192 46.6364,75.0242 45.6594,71.3912 C45.2524,69.8792 45.0184,68.2682 45.4794,66.7532 C46.0524,64.8762 48.2134,63.9672 50.1474,64.2232 C50.9884,64.3352 51.5454,64.6822 52.0674,65.2602 C52.2384,65.4482 52.1354,65.3232 52.2514,65.5002 C52.3334,65.6282 52.4134,65.7552 52.4834,65.8872 C52.5314,65.9712 52.5744,66.0592 52.6154,66.1502 C52.6154,66.1572 52.6994,66.3592 52.7174,66.4122 C53.0104,67.2962 53.0314,68.3072 53.1694,69.2232 C53.6634,72.4772 54.2064,75.7262 54.8604,78.9532 C54.9404,79.3462 55.0214,79.7422 55.1064,80.1372 L55.1064,80.1402 C55.1214,80.2172 55.1404,80.2992 55.1564,80.3782 C55.4534,81.7622 55.7814,83.1442 56.1764,84.5032 C56.5394,85.7432 56.9214,87.2612 57.8514,88.2202 C58.6644,89.0612 59.9464,87.7772 59.1354,86.9392 C59.0104,86.8092 59.0144,86.8072 58.8894,86.5912 C58.7674,86.3752 58.6604,86.1482 58.5644,85.9162 C58.5644,85.9162 58.5644,85.9142 58.5624,85.9092 C58.5324,85.7142 57.7894,80.9852 58.5644,78.3152 C59.2624,75.9102 62.2484,66.4232 62.9394,64.2302 C64.0274,63.7142 65.3434,63.6482 66.6314,63.9692 C66.9524,64.0482 67.4114,64.2302 67.5884,64.3642 C67.6614,64.4192 67.8704,64.6532 67.8814,64.6532 C67.9274,64.7162 67.9634,64.7822 68.0024,64.8502 C68.0134,64.8762 68.0224,64.8942 68.0294,64.9052 C68.0314,64.9072 68.0314,64.9072 68.0314,64.9102 C68.0344,64.9142 68.0344,64.9162 68.0364,64.9212 C68.0454,64.9482 68.0524,64.9752 68.0614,65.0032 C68.1774,65.4032 68.1454,65.7802 68.0724,66.1732 C67.4704,69.4482 66.9294,72.7342 66.5134,76.0402 C66.2314,78.2782 65.9974,80.5302 65.9094,82.7852 C65.9074,82.8322 65.9044,82.8782 65.9024,82.9232 C65.8954,83.1552 65.8864,83.3872 65.8824,83.6192 C65.8414,85.5052 65.7934,87.6412 66.5024,89.4252 C66.6814,89.8772 67.1094,90.2022 67.6184,90.0592 C68.0494,89.9362 68.4364,89.4022 68.2524,88.9432 C68.2684,88.0232 68.3904,87.2802 68.5454,86.4862 C68.6974,85.6932 69.4474,85.6622 69.4474,85.6622 C72.0884,88.1952 73.3814,92.1522 73.5584,95.6722 C73.5814,96.0832 73.5854,96.4972 73.5674,96.9082" id="Fill-37" fill="#F8F8F9"></path>
                    <path d="M29.8909,17.8365 C30.5419,19.7725 33.1949,22.4605 34.1239,23.1665 C35.0249,23.8515 35.5859,22.4895 35.6199,22.4065 C35.5959,22.7465 35.5479,23.0855 35.4799,23.4245 C35.4779,23.4265 35.4769,23.4285 35.4789,23.4295 C35.1739,24.2845 34.3399,23.7805 34.3399,23.7805 C32.2419,22.3905 30.6529,20.3575 29.8909,17.8365" id="Fill-39" fill="#DCDCDB"></path>
                    <path d="M29.6603,36.4928 C27.9343,34.9728 27.9273,34.1728 27.9273,34.1728 L27.9303,34.1728 C27.9863,34.4128 28.1463,34.6258 28.3633,34.7818 C29.9903,35.9568 31.9823,36.8268 33.9323,37.2608 C34.4563,37.3768 34.9833,37.4528 35.5113,37.4858 C35.5133,37.4868 35.5163,37.4868 35.5163,37.4868 C36.0203,37.5338 36.3473,37.8708 36.4363,37.9728 C36.4393,37.9758 36.4433,37.9788 36.4463,37.9848 C36.4503,37.9878 36.4513,37.9898 36.4533,37.9938 C36.4583,37.9988 36.4603,38.0038 36.4603,38.0038 C36.6633,38.2818 36.8323,38.5848 36.9673,38.9038 L36.9653,38.9048 C36.9653,38.9048 31.3863,38.0128 29.6603,36.4928" id="Fill-41" fill="#DCDCDB"></path>
                </g>
                <g id="Group-46" transform="translate(10.000000, 32.110000)">
                    <mask id="mask-2" fill="white">
                        <use xlink:href="#path-1"></use>
                    </mask>
                    <g id="Clip-45"></g>
                    <polygon id="Fill-44" fill="#FCFDF9" mask="url(#mask-2)" points="14.0365 7.2731 1.9895 17.0261 -7.2495 5.6151 4.7975 -4.1379"></polygon>
                </g>
                <g id="Group-57" transform="translate(8.000000, 22.110000)" fill="#DCDCDB">
                    <path d="M17.6268,30.6433 C18.7058,31.4603 19.8658,32.1823 21.0598,32.8133 C21.7628,33.1843 22.4918,33.5323 23.2418,33.8263 C23.2448,33.8293 23.2498,33.8303 23.2548,33.8323 L23.2588,33.8353 C23.5638,33.9583 23.2948,34.2853 23.2948,34.2853 C23.1498,34.4363 23.0018,34.5873 22.8448,34.7333 C22.8448,34.7333 20.8798,34.3173 19.8498,33.4103 C18.8198,32.5033 17.6478,31.8853 17.6268,30.6433" id="Fill-47"></path>
                    <path d="M53.5647,65.3149 C52.7897,67.9849 53.5327,72.7139 53.5627,72.9099 C53.2827,72.2349 53.0717,71.5299 52.8717,70.8279 C52.6447,70.0329 52.4377,69.2279 52.2487,68.4209 C52.2447,68.4079 52.2417,68.3919 52.2397,68.3779 C51.9917,67.2329 52.1827,66.3099 52.2557,66.0239 C52.2557,66.0239 52.2557,66.0189 52.2577,66.0189 C52.2627,66.0039 52.2647,65.9899 52.2697,65.9739 C52.2697,65.9689 52.2717,65.9629 52.2737,65.9579 C52.2767,65.9539 52.2767,65.9469 52.2787,65.9439 C52.2787,65.9439 52.2807,65.9349 52.2807,65.9309 C52.9377,63.6059 53.5947,61.2809 54.2507,58.9569 C54.6167,57.6569 54.9847,56.3589 55.3507,55.0619 C55.4007,54.8889 55.4327,54.7209 55.4737,54.5459 C55.6257,53.8869 55.7867,53.4869 56.0827,52.9689 C56.5397,52.1599 57.1847,51.5889 57.9387,51.2299 C57.2487,53.4229 54.2627,62.9109 53.5647,65.3149" id="Fill-49"></path>
                    <path d="M0.3537,18.5583 C0.0477,17.5373 -0.0273,16.3783 0.0597,15.2133 C0.0687,15.1033 0.0777,14.9933 0.0897,14.8833 C0.1877,13.9303 0.3897,12.9823 0.6647,12.1123 C1.6987,8.8233 4.1797,5.8763 6.8367,3.7403 C8.7927,2.1653 11.0067,1.2203 13.4657,0.7723 C14.9107,0.5103 16.4097,0.3623 17.9097,0.3753 C17.5097,0.4133 11.0257,1.1123 5.9277,6.5253 C0.6647,12.1123 0.3537,18.5583 0.3537,18.5583" id="Fill-51"></path>
                    <path d="M41.8661,75.1024 L41.8661,75.1204 C41.8681,75.3044 41.8661,75.4914 41.8611,75.6774 C41.8341,76.7614 41.6981,77.8364 41.3771,78.8744 C41.3231,79.0494 41.2621,79.2264 41.1961,79.3994 C41.1891,79.4174 41.1621,79.4884 41.1431,79.5334 L41.1431,79.5364 C41.1431,79.5384 41.1431,79.5404 41.1411,79.5454 L41.1391,79.5474 C41.1391,79.5474 41.1391,79.5514 41.1371,79.5544 C41.1321,79.5604 41.1321,79.5654 41.1301,79.5674 C41.1071,79.6134 41.0751,79.6884 41.0661,79.7084 C40.9711,79.9044 40.8681,80.0904 40.7571,80.2744 C41.1711,76.8064 41.0341,76.7474 41.0341,76.2004 C41.0341,75.6524 40.1571,75.5044 40.1571,75.5044 C40.5301,75.2544 40.9181,75.0274 41.3091,74.8204 C41.3091,74.8204 41.3141,74.8184 41.3231,74.8134 C41.4051,74.7794 41.8591,74.6114 41.8661,75.1024" id="Fill-53"></path>
                    <path d="M64.4474,72.6617 C64.4474,72.6617 63.6974,72.6937 63.5454,73.4867 C63.3904,74.2797 63.2684,75.0227 63.2524,75.9427 C62.7844,74.7637 62.6884,73.5247 62.6814,72.2457 C62.6844,72.2137 62.7314,71.7117 63.0994,71.7117 C63.2024,71.7117 63.3274,71.7507 63.4814,71.8457 C63.4834,71.8457 63.4834,71.8457 63.4864,71.8477 C63.8244,72.0977 64.1454,72.3707 64.4474,72.6617" id="Fill-55"></path>
                </g>
                <g id="Group-60" transform="translate(60.000000, 109.110000)">
                    <mask id="mask-4" fill="white">
                        <use xlink:href="#path-3"></use>
                    </mask>
                    <g id="Clip-59"></g>
                    <polygon id="Fill-58" fill="#FCFDF9" mask="url(#mask-4)" points="-0.396 -4.5525 14.885 -1.9585 12.428 12.5165 -2.853 9.9225"></polygon>
                </g>
                <g id="Group-131" transform="translate(0.000000, 0.110000)">
                    <path d="M73.9859,112.5255 C73.4749,113.2115 72.9129,113.8685 72.3359,114.4935 C71.0069,115.9385 69.5979,117.4185 67.9189,118.4615 C66.5259,119.3245 64.9549,119.8995 63.3259,120.1065 C60.5259,120.4615 57.7219,119.8315 55.1039,118.8745 C53.9039,118.4385 52.8199,117.9135 51.8339,117.0815 C50.6869,116.1135 49.6729,114.9755 48.7639,113.7845 C48.9439,113.9365 54.8679,118.9905 60.7579,118.7405 C66.7389,118.4865 70.7269,115.6685 73.9859,112.5255" id="Fill-61" fill="#DCDCDB"></path>
                    <path d="M53.2589,123.1129 C53.0249,122.9989 52.8049,122.8649 52.6139,122.7079 C51.9269,122.1449 51.4589,121.1289 51.4959,120.3519 C51.5049,120.1219 51.5249,119.8839 51.5479,119.6449 C51.5479,119.6449 51.5479,119.6359 51.5499,119.6199 C51.5639,119.5289 51.6339,119.2359 51.9799,119.4379 C51.9839,119.4409 51.9909,119.4449 51.9979,119.4469 C51.9979,119.4469 51.9999,119.4499 52.0019,119.4519 C52.1839,119.5629 52.3679,119.6679 52.5569,119.7679 C52.7839,119.8879 53.0199,120.0039 53.2589,120.1109 C53.2389,120.1839 52.7699,121.8769 53.2589,123.1129" id="Fill-63" fill="#DCDCDB"></path>
                    <path d="M14.724,22.643 C14.146,22.288 12.811,22.012 12.811,22.012 C12.852,21.987 12.893,21.957 12.935,21.93 C13.005,21.889 13.08,21.852 13.153,21.814 C13.156,21.813 13.159,21.81 13.161,21.808 C13.14,21.818 13.125,21.822 13.115,21.826 C13.112,21.826 13.109,21.826 13.106,21.826 C13.117,21.821 13.137,21.811 13.157,21.802 C13.167,21.798 13.175,21.796 13.179,21.794 C13.187,21.792 13.193,21.789 13.197,21.788 L13.2,21.788 C13.198,21.79 13.187,21.795 13.162,21.81 C13.224,21.785 13.283,21.762 13.343,21.742 C13.882,21.56 14.406,21.539 15.021,21.687 C15.403,21.779 15.764,21.927 16.106,22.113 L16.107,22.114 C16.606,22.411 16.12,22.764 15.974,22.857 C15.969,22.859 15.963,22.862 15.958,22.864 L15.96,22.866 C15.949,22.871 15.942,22.877 15.937,22.878 L15.935,22.88 C15.385,23.195 14.854,23.545 14.34,23.922 C14.425,23.839 15.275,22.98 14.724,22.643" id="Fill-65" fill="#DCDCDB"></path>
                    <path d="M80.4937,49.2244 C83.1567,48.5174 84.5257,47.2364 84.6447,47.1214 C84.0157,47.8264 83.3867,48.5314 82.7547,49.2354 C82.7547,49.2384 82.7527,49.2394 82.7507,49.2404 C82.3247,49.7204 81.3937,50.0884 81.3297,50.1144 C81.3257,50.1134 81.3247,50.1144 81.3247,50.1144 C79.2927,50.7274 77.2617,51.3404 75.2317,51.9504 C73.9767,52.3294 72.7247,52.7084 71.4687,53.0854 C71.2427,53.1524 71.0177,53.2234 70.7907,53.2884 C70.7347,53.3064 70.6777,53.3254 70.6197,53.3394 C70.5557,53.3574 70.4907,53.3684 70.4237,53.3854 C70.3837,53.3934 70.3567,53.4024 70.3387,53.4074 C70.3417,53.4084 70.3437,53.4074 70.3447,53.4094 C70.3417,53.4114 70.3257,53.4154 70.3167,53.4154 C70.3197,53.4114 70.3247,53.4104 70.3357,53.4064 C70.3247,53.4054 70.3007,53.4064 70.2607,53.4104 C69.6017,53.4564 69.2157,53.4534 68.5967,53.2304 C68.2957,53.1214 67.9967,52.9554 67.7187,52.7504 C69.5297,52.2484 78.0097,49.8854 80.4937,49.2244" id="Fill-67" fill="#DCDCDB"></path>
                    <path d="M66.3875,37.3329 C68.9735,37.4249 76.4675,37.6999 77.9165,37.8109 C79.6185,37.9409 81.4725,36.9169 81.5915,36.8489 C80.9465,37.4099 80.2705,37.9389 79.5735,38.4399 C79.5735,38.4399 78.8905,38.8909 77.9355,38.8729 C77.9275,38.8729 77.9175,38.8739 77.9065,38.8729 C77.8895,38.8719 77.8715,38.8729 77.8515,38.8719 C75.5175,38.7639 73.1855,38.6579 70.8515,38.5499 C70.2675,38.5239 69.6855,38.4969 69.1005,38.4689 C68.9865,38.4639 68.8715,38.4599 68.7555,38.4539 C68.7455,38.4549 68.7345,38.4539 68.7235,38.4519 C68.6915,38.4529 68.6595,38.4489 68.6285,38.4459 C68.6075,38.4459 68.5895,38.4469 68.5775,38.4459 C68.5775,38.4459 68.5745,38.4449 68.5715,38.4439 C68.5655,38.4429 68.5555,38.4399 68.5445,38.4389 C67.7525,38.3249 66.8305,38.0609 66.3875,37.3329" id="Fill-69" fill="#DCDCDB"></path>
                    <path d="M98.8543,25.0809 C99.7033,25.2189 100.5403,25.5109 101.3643,25.7419 C103.0953,26.2269 104.6183,26.8689 105.9813,28.0829 C108.1173,29.9859 109.8073,32.2359 110.5993,35.0079 C110.9263,36.1539 111.1243,37.3249 111.2033,38.5099 C111.2353,39.0069 111.2503,39.5049 111.2393,40.0019 C111.2373,40.1709 111.2323,40.3419 111.2223,40.5129 C111.2183,40.6009 111.2093,40.6919 111.2053,40.7799 C111.2003,40.8249 111.1973,40.8669 111.1933,40.9089 C111.1923,40.9209 111.1913,40.9319 111.1903,40.9429 C111.1283,41.4159 110.9483,41.8399 110.7853,42.2869 C110.4503,43.1979 110.1233,44.1129 109.8243,45.0369 C109.5303,45.9419 109.2403,46.8639 109.0833,47.8039 C108.9583,48.5309 109.0243,49.1439 109.1403,49.8589 C109.1863,50.1609 109.2343,50.4859 109.2923,50.8849 C109.3573,51.3619 109.4243,51.8409 109.4893,52.3159 C109.6223,53.2999 109.7493,54.2799 109.8763,55.2629 C109.9563,55.8799 110.0463,56.4969 110.1133,57.1139 C110.1203,57.1869 110.1253,57.2639 110.1363,57.3349 C110.1353,57.3379 110.1373,57.3419 110.1373,57.3449 C110.1353,57.3459 110.1353,57.3459 110.1363,57.3479 C110.1113,57.4779 110.0913,57.6099 110.0573,57.7369 C109.8403,58.5739 109.2503,59.1909 108.4963,59.5819 C108.4963,59.5819 109.6393,58.3109 109.3613,56.9269 C109.0833,55.5409 107.9943,48.4319 107.9943,48.4319 C107.9943,48.4319 107.8603,46.8749 108.5813,45.5849 C108.5813,45.5849 108.5833,45.5839 108.5843,45.5809 C108.6633,45.3969 111.1603,39.4639 109.6683,35.3009 C109.6673,35.2989 109.6663,35.2939 109.6653,35.2919 C109.2553,34.4479 108.8963,33.7189 108.5623,33.0789 C106.5713,29.8909 103.3213,27.3009 103.1193,27.1399 C103.1163,27.1389 103.1133,27.1349 103.1123,27.1329 L103.1093,27.1319 C101.7423,26.2409 100.1873,25.4159 98.8543,25.0809" id="Fill-71" fill="#DCDCDB"></path>
                    <path d="M1.7145,53.675 C-2.9805,77.377 6.2055,101.935 25.5735,116.46 C30.6305,120.253 36.2485,123.206 42.1945,125.337 C43.4285,125.78 43.9605,123.815 42.7355,123.376 C22.2515,116.033 6.9295,97.896 3.2925,76.414 C2.0485,69.066 2.2285,61.518 3.6755,54.216 C3.9285,52.937 1.9695,52.39 1.7145,53.675" id="Fill-73" fill="#FEFEFE"></path>
                    <path d="M26.7483,7.0786 L23.3793,7.0786 L23.3793,10.4506 C23.3793,11.7596 21.3453,11.7566 21.3453,10.4506 L21.3453,7.0786 L17.9733,7.0786 C16.6643,7.0786 16.6673,5.0446 17.9733,5.0446 L21.3453,5.0446 L21.3453,1.6756 C21.3453,0.3636 23.3793,0.3666 23.3793,1.6756 L23.3793,5.0446 L26.7483,5.0446 C28.0603,5.0446 28.0573,7.0786 26.7483,7.0786" id="Fill-75" fill="#FEFEFE"></path>
                    <path d="M113.1262,119.9279 L109.7572,119.9279 L109.7572,123.2999 C109.7572,124.6089 107.7232,124.6059 107.7232,123.2999 L107.7232,119.9279 L104.3512,119.9279 C103.0422,119.9279 103.0452,117.8939 104.3512,117.8939 L107.7232,117.8939 L107.7232,114.5249 C107.7232,113.2129 109.7572,113.2159 109.7572,114.5249 L109.7572,117.8939 L113.1262,117.8939 C114.4382,117.8939 114.4352,119.9279 113.1262,119.9279" id="Fill-77" fill="#FEFEFE"></path>
                    <path d="M96.4291,68.3863 L96.4291,73.7453 C96.4291,75.0533 98.4631,75.0553 98.4631,73.7453 L98.4631,68.3863 C98.4631,67.0783 96.4291,67.0753 96.4291,68.3863" id="Fill-79" fill="#FEFEFE"></path>
                    <path d="M94.7666,72.0824 L100.1256,72.0824 C101.4336,72.0824 101.4356,70.0484 100.1256,70.0484 L94.7666,70.0484 C93.4586,70.0484 93.4556,72.0824 94.7666,72.0824" id="Fill-81" fill="#FEFEFE"></path>
                    <path d="M96.4498,9.6247 L96.4498,14.9837 C96.4498,16.2917 98.4838,16.2937 98.4838,14.9837 L98.4838,9.6247 C98.4838,8.3167 96.4498,8.3137 96.4498,9.6247" id="Fill-83" fill="#FEFEFE"></path>
                    <path d="M94.7872,13.3208 L100.1462,13.3208 C101.4542,13.3208 101.4562,11.2868 100.1462,11.2868 L94.7872,11.2868 C93.4792,11.2868 93.4762,13.3208 94.7872,13.3208" id="Fill-85" fill="#FEFEFE"></path>
                    <path d="M29.9105,86.9637 L29.9105,92.3227 C29.9105,93.6307 31.9445,93.6327 31.9445,92.3227 L31.9445,86.9637 C31.9445,85.6557 29.9105,85.6527 29.9105,86.9637" id="Fill-87" fill="#FEFEFE"></path>
                    <path d="M28.248,90.6598 L33.607,90.6598 C34.915,90.6598 34.917,88.6258 33.607,88.6258 L28.248,88.6258 C26.939,88.6258 26.937,90.6598 28.248,90.6598" id="Fill-89" fill="#FEFEFE"></path>
                    <path d="M65.7216,10.2056 C65.7216,12.9336 63.5336,15.1446 60.8336,15.1446 C58.1346,15.1446 55.9466,12.9336 55.9466,10.2056 C55.9466,7.4776 58.1346,5.2666 60.8336,5.2666 C63.5336,5.2666 65.7216,7.4776 65.7216,10.2056" id="Fill-91" fill="#FDC42B"></path>
                    <path d="M64.2955,10.2056 C64.2955,12.1376 62.7455,13.7036 60.8345,13.7036 C58.9225,13.7036 57.3725,12.1376 57.3725,10.2056 C57.3725,8.2736 58.9225,6.7076 60.8345,6.7076 C62.7455,6.7076 64.2955,8.2736 64.2955,10.2056" id="Fill-93" fill="#FBB322"></path>
                    <path d="M62.5997,7.2935 C62.4727,7.6825 61.9597,7.8645 61.4537,7.6985 C60.9477,7.5335 60.6407,7.0845 60.7687,6.6955 C60.8957,6.3055 61.4087,6.1245 61.9147,6.2895 C62.4197,6.4545 62.7267,6.9045 62.5997,7.2935" id="Fill-95" fill="#FBF6E9"></path>
                    <path d="M63.9354,8.1133 C63.9354,8.3993 63.7034,8.6313 63.4174,8.6313 C63.1314,8.6313 62.9004,8.3993 62.9004,8.1133 C62.9004,7.8273 63.1314,7.5953 63.4174,7.5953 C63.7034,7.5953 63.9354,7.8273 63.9354,8.1133" id="Fill-97" fill="#FBF6E9"></path>
                    <path d="M15.2598,77.0217 C15.2598,79.7497 13.0718,81.9607 10.3718,81.9607 C7.6728,81.9607 5.4848,79.7497 5.4848,77.0217 C5.4848,74.2937 7.6728,72.0827 10.3718,72.0827 C13.0718,72.0827 15.2598,74.2937 15.2598,77.0217" id="Fill-99" fill="#FDC42B"></path>
                    <path d="M13.8336,77.0217 C13.8336,78.9537 12.2836,80.5197 10.3726,80.5197 C8.4606,80.5197 6.9106,78.9537 6.9106,77.0217 C6.9106,75.0897 8.4606,73.5237 10.3726,73.5237 C12.2836,73.5237 13.8336,75.0897 13.8336,77.0217" id="Fill-101" fill="#FBB322"></path>
                    <path d="M12.1378,74.1096 C12.0108,74.4986 11.4978,74.6806 10.9918,74.5146 C10.4858,74.3496 10.1788,73.9006 10.3068,73.5116 C10.4338,73.1216 10.9468,72.9406 11.4528,73.1056 C11.9578,73.2706 12.2648,73.7206 12.1378,74.1096" id="Fill-103" fill="#FBF6E9"></path>
                    <path d="M13.4736,74.9294 C13.4736,75.2154 13.2416,75.4474 12.9556,75.4474 C12.6696,75.4474 12.4386,75.2154 12.4386,74.9294 C12.4386,74.6434 12.6696,74.4114 12.9556,74.4114 C13.2416,74.4114 13.4736,74.6434 13.4736,74.9294" id="Fill-105" fill="#FBF6E9"></path>
                    <path d="M27.2493,113.5423 C27.2493,116.2703 25.0613,118.4813 22.3613,118.4813 C19.6623,118.4813 17.4743,116.2703 17.4743,113.5423 C17.4743,110.8143 19.6623,108.6033 22.3613,108.6033 C25.0613,108.6033 27.2493,110.8143 27.2493,113.5423" id="Fill-107" fill="#FDC42B"></path>
                    <path d="M25.8232,113.5423 C25.8232,115.4743 24.2732,117.0403 22.3622,117.0403 C20.4502,117.0403 18.9002,115.4743 18.9002,113.5423 C18.9002,111.6103 20.4502,110.0443 22.3622,110.0443 C24.2732,110.0443 25.8232,111.6103 25.8232,113.5423" id="Fill-109" fill="#FBB322"></path>
                    <path d="M24.1273,110.6302 C24.0003,111.0192 23.4873,111.2012 22.9813,111.0352 C22.4753,110.8702 22.1683,110.4212 22.2963,110.0322 C22.4233,109.6422 22.9363,109.4612 23.4423,109.6262 C23.9473,109.7912 24.2543,110.2412 24.1273,110.6302" id="Fill-111" fill="#FBF6E9"></path>
                    <path d="M25.4631,111.45 C25.4631,111.736 25.2311,111.968 24.9451,111.968 C24.6591,111.968 24.4281,111.736 24.4281,111.45 C24.4281,111.164 24.6591,110.932 24.9451,110.932 C25.2311,110.932 25.4631,111.164 25.4631,111.45" id="Fill-113" fill="#FBF6E9"></path>
                    <path d="M115.1138,69.7351 C115.1138,72.4631 112.9258,74.6741 110.2258,74.6741 C107.5268,74.6741 105.3388,72.4631 105.3388,69.7351 C105.3388,67.0071 107.5268,64.7961 110.2258,64.7961 C112.9258,64.7961 115.1138,67.0071 115.1138,69.7351" id="Fill-115" fill="#FDC42B"></path>
                    <path d="M113.6877,69.7351 C113.6877,71.6671 112.1377,73.2331 110.2267,73.2331 C108.3147,73.2331 106.7647,71.6671 106.7647,69.7351 C106.7647,67.8031 108.3147,66.2371 110.2267,66.2371 C112.1377,66.2371 113.6877,67.8031 113.6877,69.7351" id="Fill-117" fill="#FBB322"></path>
                    <path d="M111.9918,66.8231 C111.8648,67.2121 111.3518,67.3941 110.8458,67.2281 C110.3398,67.0631 110.0328,66.6141 110.1608,66.2251 C110.2878,65.8351 110.8008,65.6541 111.3068,65.8191 C111.8118,65.9841 112.1188,66.4341 111.9918,66.8231" id="Fill-119" fill="#FBF6E9"></path>
                    <path d="M113.3276,67.6428 C113.3276,67.9288 113.0956,68.1608 112.8096,68.1608 C112.5236,68.1608 112.2926,67.9288 112.2926,67.6428 C112.2926,67.3568 112.5236,67.1248 112.8096,67.1248 C113.0956,67.1248 113.3276,67.3568 113.3276,67.6428" id="Fill-121" fill="#FBF6E9"></path>
                    <path d="M95.772,113.5423 C95.772,116.2703 93.584,118.4813 90.884,118.4813 C88.185,118.4813 85.997,116.2703 85.997,113.5423 C85.997,110.8143 88.185,108.6033 90.884,108.6033 C93.584,108.6033 95.772,110.8143 95.772,113.5423" id="Fill-123" fill="#FDC42B"></path>
                    <path d="M94.3459,113.5423 C94.3459,115.4743 92.7959,117.0403 90.8849,117.0403 C88.9729,117.0403 87.4229,115.4743 87.4229,113.5423 C87.4229,111.6103 88.9729,110.0443 90.8849,110.0443 C92.7959,110.0443 94.3459,111.6103 94.3459,113.5423" id="Fill-125" fill="#FBB322"></path>
                    <path d="M92.65,110.6302 C92.523,111.0192 92.01,111.2012 91.504,111.0352 C90.998,110.8702 90.692,110.4212 90.819,110.0322 C90.946,109.6422 91.459,109.4612 91.965,109.6262 C92.47,109.7912 92.777,110.2412 92.65,110.6302" id="Fill-127" fill="#FBF6E9"></path>
                    <path d="M93.9858,111.45 C93.9858,111.736 93.7538,111.968 93.4678,111.968 C93.1818,111.968 92.9508,111.736 92.9508,111.45 C92.9508,111.164 93.1818,110.932 93.4678,110.932 C93.7538,110.932 93.9858,111.164 93.9858,111.45" id="Fill-129" fill="#FBF6E9"></path>
                </g>
            </g>
        </g>
    </g>
</svg>